<svg width="80" height="80" viewBox="0 0 80 80" fill="none" xmlns="http://www.w3.org/2000/svg">
<g clip-path="url(#clip0_0_50)">
<path d="M79.0455 68.3636C79.0455 69.9697 78.4849 71.3333 77.3636 72.4546L72.5 77.3636C71.3182 78.4849 69.9394 79.0455 68.3636 79.0455C66.7576 79.0455 65.3939 78.4849 64.2727 77.3636L47.7727 60.8182C46.6212 59.7273 46.0455 58.3636 46.0455 56.7273C46.0455 55.1212 46.697 53.6667 48 52.3636L36.3636 40.7273L30.6364 46.4546C30.2121 46.8788 29.697 47.0909 29.0909 47.0909C28.4849 47.0909 27.9697 46.8788 27.5455 46.4546C27.6061 46.5152 27.7955 46.697 28.1136 47C28.4318 47.303 28.6212 47.5 28.6818 47.5909C28.7424 47.6818 28.8939 47.8561 29.1364 48.1136C29.3788 48.3712 29.5303 48.5758 29.5909 48.7273C29.6515 48.8788 29.7424 49.0833 29.8636 49.3409C29.9849 49.5985 30.0682 49.8485 30.1136 50.0909C30.1591 50.3333 30.1818 50.6061 30.1818 50.9091C30.1818 52.0606 29.7576 53.0909 28.9091 54C28.8182 54.0909 28.5682 54.3636 28.1591 54.8182C27.75 55.2727 27.4621 55.5833 27.2955 55.75C27.1288 55.9167 26.8485 56.1667 26.4546 56.5C26.0606 56.8333 25.7273 57.0682 25.4546 57.2046C25.1818 57.3409 24.8485 57.4773 24.4546 57.6136C24.0606 57.75 23.6667 57.8182 23.2727 57.8182C22.0606 57.8182 21.0303 57.3939 20.1818 56.5455L1.63637 38C0.78789 37.1515 0.363647 36.1212 0.363647 34.9091C0.363647 34.5152 0.431829 34.1212 0.568193 33.7273C0.704557 33.3333 0.84092 33 0.977284 32.7273C1.11365 32.4546 1.3485 32.1212 1.68183 31.7273C2.01516 31.3333 2.26516 31.053 2.43183 30.8864C2.5985 30.7197 2.9091 30.4318 3.36365 30.0227C3.81819 29.6136 4.09092 29.3636 4.18183 29.2727C5.09092 28.4243 6.12122 28 7.27274 28C7.57577 28 7.8485 28.0227 8.09092 28.0682C8.33334 28.1136 8.58334 28.197 8.84092 28.3182C9.0985 28.4394 9.30304 28.5303 9.45456 28.5909C9.60607 28.6515 9.81062 28.803 10.0682 29.0455C10.3258 29.2879 10.5 29.4394 10.5909 29.5C10.6818 29.5606 10.8788 29.75 11.1818 30.0682C11.4849 30.3864 11.6667 30.5758 11.7273 30.6364C11.303 30.2121 11.0909 29.697 11.0909 29.0909C11.0909 28.4849 11.303 27.9697 11.7273 27.5455L27.5455 11.7273C27.9697 11.303 28.4849 11.0909 29.0909 11.0909C29.697 11.0909 30.2121 11.303 30.6364 11.7273C30.5758 11.6667 30.3864 11.4849 30.0682 11.1818C29.75 10.8788 29.5606 10.6818 29.5 10.5909C29.4394 10.5 29.2879 10.3258 29.0455 10.0682C28.803 9.81062 28.6515 9.60607 28.5909 9.45456C28.5303 9.30304 28.4394 9.0985 28.3182 8.84092C28.197 8.58334 28.1136 8.33334 28.0682 8.09092C28.0227 7.8485 28 7.57577 28 7.27274C28 6.12122 28.4243 5.09092 29.2727 4.18183C29.3636 4.09092 29.6136 3.81819 30.0227 3.36365C30.4318 2.9091 30.7197 2.5985 30.8864 2.43183C31.053 2.26516 31.3333 2.01516 31.7273 1.68183C32.1212 1.3485 32.4546 1.11365 32.7273 0.977284C33 0.84092 33.3333 0.704557 33.7273 0.568193C34.1212 0.431829 34.5152 0.363647 34.9091 0.363647C36.1212 0.363647 37.1515 0.78789 38 1.63637L56.5455 20.1818C57.3939 21.0303 57.8182 22.0606 57.8182 23.2727C57.8182 23.6667 57.75 24.0606 57.6136 24.4546C57.4773 24.8485 57.3409 25.1818 57.2046 25.4546C57.0682 25.7273 56.8333 26.0606 56.5 26.4546C56.1667 26.8485 55.9167 27.1288 55.75 27.2955C55.5833 27.4621 55.2727 27.75 54.8182 28.1591C54.3636 28.5682 54.0909 28.8182 54 28.9091C53.0909 29.7576 52.0606 30.1818 50.9091 30.1818C50.6061 30.1818 50.3333 30.1591 50.0909 30.1136C49.8485 30.0682 49.5985 29.9849 49.3409 29.8636C49.0833 29.7424 48.8788 29.6515 48.7273 29.5909C48.5758 29.5303 48.3712 29.3788 48.1136 29.1364C47.8561 28.8939 47.6818 28.7424 47.5909 28.6818C47.5 28.6212 47.303 28.4318 47 28.1136C46.697 27.7955 46.5152 27.6061 46.4546 27.5455C46.8788 27.9697 47.0909 28.4849 47.0909 29.0909C47.0909 29.697 46.8788 30.2121 46.4546 30.6364L40.7273 36.3636L52.3636 48C53.6667 46.697 55.1212 46.0455 56.7273 46.0455C58.303 46.0455 59.6818 46.6061 60.8636 47.7273L77.3636 64.2273C78.4849 65.4091 79.0455 66.7879 79.0455 68.3636Z" fill="#052925"/>
</g>
<defs>
<clipPath id="clip0_0_50">
<rect width="80" height="80" fill="white"/>
</clipPath>
</defs>
</svg>
