<svg width="54" height="61" viewBox="0 0 54 61" fill="none" xmlns="http://www.w3.org/2000/svg">
<path d="M26.7997 0.384766C23.2963 0.431265 19.9526 1.85726 17.4939 4.35339C15.0352 6.84951 13.6599 10.2144 13.6663 13.7181C13.4663 19.1848 13.033 25.2848 10.433 29.0181C19.3663 34.4514 26.9997 33.7181 26.9997 33.7181C26.9997 33.7181 34.633 34.4514 43.5663 29.0181C40.733 24.4514 40.133 18.8514 40.333 13.7181C40.333 6.35143 34.3663 0.384766 26.9997 0.384766H26.7997ZM16.533 34.7848C6.99967 36.8181 0.333008 41.5514 0.333008 47.0514V60.3848H26.9997L16.9997 47.0514H8.66634M26.9997 60.3848L32.933 36.4181C32.933 36.4181 30.333 37.0514 26.9997 37.0514C23.6663 37.0514 21.0663 36.4181 21.0663 36.4181M26.9997 60.3848H53.6663V47.0514C53.6663 41.5514 46.9997 36.8181 37.4663 34.7848L45.333 47.0514H36.9997L26.9997 60.3848Z" fill="#052925"/>
</svg>
