<svg width="81" height="64" viewBox="0 0 81 64" fill="none" xmlns="http://www.w3.org/2000/svg">
<path d="M0.805008 35.5152C1.13018 38.0021 2.34886 40.2857 4.23375 41.9402C6.11864 43.5947 8.54101 44.507 11.049 44.507C13.557 44.507 15.9794 43.5947 17.8643 41.9402C19.7492 40.2857 20.9678 38.0021 21.293 35.5152H0.805008ZM56.6242 56.3137C56.6248 56.5239 56.584 56.7322 56.5041 56.9267C56.4242 57.1211 56.3067 57.298 56.1584 57.447C56.0101 57.596 55.8339 57.7144 55.6398 57.7953C55.4458 57.8762 55.2377 57.918 55.0274 57.9184H25.1778C24.301 57.9184 23.5778 57.1985 23.5778 56.3137C23.5799 55.891 23.7495 55.4864 24.0495 55.1886C24.3494 54.8908 24.7551 54.724 25.1778 54.7249H55.0258C55.909 54.7249 56.6242 55.4353 56.6242 56.3137ZM23.7522 58.7361H56.4514V63.3552H23.7522V58.7361ZM59.373 35.5152C59.696 38.0037 60.9136 40.2896 62.7985 41.9461C64.6835 43.6025 67.1068 44.5163 69.6162 44.5168C72.1252 44.5169 74.5484 43.6032 76.4327 41.9465C78.3169 40.2898 79.5334 38.0036 79.8546 35.5152H59.373ZM79.2914 32.3008L70.9026 20.7456H75.3874C76.4786 20.7456 77.357 19.8512 77.357 18.7456C77.357 17.6496 76.477 16.7648 75.3874 16.7648H51.6306C50.9254 14.8223 49.721 13.0998 48.1385 11.7707C46.556 10.4416 44.6514 9.55273 42.6162 9.19365V2.95845C42.6162 1.84965 41.7266 0.96485 40.6242 0.96485L40.4386 0.98565L40.253 0.96485C39.9913 0.964213 39.732 1.01538 39.4901 1.1154C39.2482 1.21542 39.0285 1.36232 38.8436 1.54764C38.6587 1.73295 38.5124 1.95301 38.4129 2.19515C38.3135 2.43728 38.2629 2.6967 38.2642 2.95845V9.19045C36.2293 9.54928 34.325 10.4381 32.743 11.7673C31.161 13.0964 29.9572 14.8191 29.253 16.7616H5.49141C4.40821 16.7616 3.52501 17.6464 3.52501 18.7424C3.52501 19.8496 4.40821 20.7424 5.49141 20.7424H9.77141L1.38101 32.2976H0.333008V34.432H21.7698V32.2976H20.717L12.3298 20.7456H31.8002C31.8002 20.2944 31.8498 19.8512 31.917 19.4272C31.9858 19.2272 32.0322 19.024 32.0322 18.8144C32.3929 17.2944 33.1652 15.903 34.2646 14.7929C35.3639 13.6829 36.7477 12.8971 38.2642 12.5216V34.4368H38.181C38.0098 42.68 34.0882 49.8688 28.2706 53.9088H52.613C46.7938 49.8688 42.8754 42.68 42.6946 34.4368H42.6178V12.5216C44.1341 12.8971 45.5177 13.683 46.6167 14.7931C47.7158 15.9032 48.4878 17.2945 48.8482 18.8144C48.8546 19.024 48.8978 19.2272 48.9682 19.4272C49.0322 19.8528 49.0722 20.2944 49.0722 20.7456H68.3394L59.949 32.3008H58.9026V34.4352H80.333V32.3008H79.2914ZM10.197 32.3008H3.50101L10.197 23.0768V32.3008ZM11.9106 32.3008V23.0768L18.6066 32.3008H11.9106ZM68.7618 32.3008H62.0626L68.7618 23.0768V32.3008ZM70.4674 32.3008V23.0768L77.1714 32.3008H70.4674ZM13.0386 13.984C13.0239 14.5015 12.808 14.9929 12.4368 15.3537C12.0656 15.7146 11.5683 15.9164 11.0506 15.9164C10.5329 15.9164 10.0356 15.7146 9.6644 15.3537C9.29318 14.9929 9.07729 14.5015 9.06261 13.984C9.06261 12.8864 9.95541 11.9904 11.0546 11.9904C12.149 11.9888 13.0386 12.8864 13.0386 13.984ZM71.605 13.8784C71.605 14.984 70.7154 15.8608 69.6178 15.8608C69.3568 15.8625 69.098 15.8125 68.8565 15.7135C68.6149 15.6145 68.3954 15.4686 68.2106 15.2843C68.0258 15.0999 67.8794 14.8808 67.7798 14.6394C67.6803 14.3981 67.6295 14.1395 67.6306 13.8784C67.6199 13.6108 67.6633 13.3437 67.7583 13.0932C67.8534 12.8428 67.998 12.6141 68.1836 12.4209C68.3692 12.2277 68.5919 12.074 68.8383 11.969C69.0848 11.864 69.3499 11.8099 69.6178 11.8099C69.8857 11.8099 70.1508 11.864 70.3973 11.969C70.6437 12.074 70.8664 12.2277 71.052 12.4209C71.2376 12.6141 71.3823 12.8428 71.4773 13.0932C71.5723 13.3437 71.6157 13.6108 71.605 13.8784Z" fill="#052925"/>
</svg>
