<svg width="42" height="43" viewBox="0 0 42 43" fill="none" xmlns="http://www.w3.org/2000/svg">
<path d="M36.75 17.8857V7.38574C36.75 5.46074 35.175 3.88574 33.25 3.88574H5.25C3.325 3.88574 1.7675 5.46074 1.7675 7.38574L1.75 28.3857C1.75 30.3107 3.325 31.8857 5.25 31.8857H24.5V23.1357C24.5 20.2307 26.845 17.8857 29.75 17.8857H36.75ZM19.25 19.6357L5.25 10.8857V7.38574L19.25 16.1357L33.25 7.38574V10.8857L19.25 19.6357Z" fill="#052925"/>
<path d="M36.75 24.8857V31.8857C36.75 33.8107 35.175 35.3857 33.25 35.3857C31.325 35.3857 29.75 33.8107 29.75 31.8857V24.0107C29.75 23.5207 30.135 23.1357 30.625 23.1357C31.115 23.1357 31.5 23.5207 31.5 24.0107V31.8857H35V24.0107C35 22.8504 34.5391 21.7376 33.7186 20.9172C32.8981 20.0967 31.7853 19.6357 30.625 19.6357C29.4647 19.6357 28.3519 20.0967 27.5314 20.9172C26.7109 21.7376 26.25 22.8504 26.25 24.0107V31.8857C26.25 35.7532 29.3825 38.8857 33.25 38.8857C37.1175 38.8857 40.25 35.7532 40.25 31.8857V24.8857H36.75Z" fill="#052925"/>
</svg>
