<svg width="68" height="69" viewBox="0 0 68 69" fill="none" xmlns="http://www.w3.org/2000/svg">
<path d="M29.1319 29.3635C37.0603 29.3635 43.4875 22.9363 43.4875 15.0079C43.4875 7.07954 37.0603 0.652344 29.1319 0.652344C21.2036 0.652344 14.7764 7.07954 14.7764 15.0079C14.7764 22.9363 21.2036 29.3635 29.1319 29.3635Z" fill="#052925"/>
<path d="M38.332 55.6074H53.8876V58.7185H38.332V55.6074Z" fill="#052925"/>
<path d="M24.999 60.052V66.7186C24.999 67.308 25.2332 67.8732 25.6499 68.29C26.0667 68.7067 26.6319 68.9408 27.2213 68.9408H64.999C65.5884 68.9408 66.1536 68.7067 66.5704 68.29C66.9871 67.8732 67.2213 67.308 67.2213 66.7186V44.4964C67.2213 43.907 66.9871 43.3418 66.5704 42.925C66.1536 42.5083 65.5884 42.2742 64.999 42.2742H49.4435V39.0075C49.4435 38.4181 49.2094 37.8529 48.7926 37.4362C48.3759 37.0194 47.8106 36.7853 47.2213 36.7853C46.6319 36.7853 46.0667 37.0194 45.6499 37.4362C45.2332 37.8529 44.999 38.4181 44.999 39.0075V42.2742H40.5546V34.3186C36.7784 33.7019 32.9586 33.3897 29.1324 33.3853C20.6941 33.3494 12.3505 35.1622 4.68793 38.6964C3.42678 39.2915 2.36283 40.236 1.62232 41.4177C0.881809 42.5993 0.495819 43.9686 0.510151 45.3631V60.052H24.999ZM62.7768 64.4964H29.4435V46.7186H44.999V47.652C44.999 48.2413 45.2332 48.8066 45.6499 49.2233C46.0667 49.6401 46.6319 49.8742 47.2213 49.8742C47.8106 49.8742 48.3759 49.6401 48.7926 49.2233C49.2094 48.8066 49.4435 48.2413 49.4435 47.652V46.7186H62.7768V64.4964Z" fill="#052925"/>
</svg>
