<svg width="81" height="81" viewBox="0 0 81 81" fill="none" xmlns="http://www.w3.org/2000/svg">
<g clip-path="url(#clip0_957_4816)">
<path d="M69.7868 0.6875H11.3068C5.57559 0.6875 0.913086 5.35 0.913086 11.0813V69.5575C0.913086 75.29 5.57559 79.9525 11.3068 79.9525H69.7868C75.5156 79.9525 80.1793 75.29 80.1793 69.5575V11.0813C80.1793 5.34875 75.5156 0.6875 69.7868 0.6875ZM56.6918 21.5312C57.6389 21.5312 58.5766 21.7178 59.4516 22.0803C60.3265 22.4428 61.1214 22.9741 61.791 23.6439C62.4605 24.3137 62.9915 25.1088 63.3537 25.9838C63.7159 26.8589 63.9022 27.7967 63.9018 28.7437C63.9018 30.1704 63.4788 31.5649 62.6861 32.7511C61.8935 33.9372 60.7669 34.8616 59.4489 35.4075C58.1308 35.9533 56.6805 36.096 55.2813 35.8175C53.8822 35.539 52.597 34.8518 51.5884 33.8429C50.5799 32.8339 49.8931 31.5486 49.6151 30.1493C49.3371 28.7501 49.4803 27.2998 50.0266 25.9819C50.5728 24.664 51.4977 23.5378 52.6841 22.7456C53.8705 21.9533 55.2652 21.5308 56.6918 21.5312ZM60.6631 37.8063C60.6068 45.0325 59.3568 45.9837 56.7343 45.9837C54.1143 45.9837 52.8631 45.0325 52.8081 37.8063H60.6631ZM38.9706 19.3237C39.3807 19.3435 39.7676 19.5202 40.0509 19.8174C40.3343 20.1146 40.4924 20.5094 40.4926 20.92C40.4927 21.3306 40.3349 21.7256 40.0518 22.023C39.7687 22.3204 39.382 22.4975 38.9718 22.5175C38.7584 22.5235 38.5459 22.4866 38.3469 22.409C38.1479 22.3315 37.9666 22.2148 37.8135 22.0659C37.6604 21.917 37.5387 21.739 37.4556 21.5423C37.3725 21.3456 37.3297 21.1342 37.3297 20.9206C37.3297 20.7071 37.3725 20.4957 37.4556 20.299C37.5387 20.1023 37.6604 19.9242 37.8135 19.7753C37.9666 19.6265 38.1479 19.5098 38.3469 19.4322C38.5459 19.3547 38.7571 19.3178 38.9706 19.3237ZM27.5568 9.1625C28.1444 9.18636 28.6999 9.43654 29.1072 9.86069C29.5145 10.2848 29.7419 10.8501 29.7419 11.4381C29.7419 12.0262 29.5145 12.5914 29.1072 13.0156C28.6999 13.4397 28.1444 13.6899 27.5568 13.7138C27.258 13.7138 26.9621 13.6549 26.686 13.5405C26.4099 13.4262 26.159 13.2585 25.9477 13.0472C25.7364 12.8359 25.5688 12.5851 25.4544 12.309C25.3401 12.0329 25.2812 11.737 25.2812 11.4381C25.2812 11.1393 25.3401 10.8434 25.4544 10.5673C25.5688 10.2912 25.7364 10.0403 25.9477 9.82901C26.159 9.6177 26.4099 9.45008 26.686 9.33572C26.9621 9.22136 27.258 9.1625 27.5568 9.1625ZM15.2031 9.14625C16.4781 9.14625 17.5143 10.1725 17.5143 11.4375C17.5143 12.7038 16.4781 13.7288 15.2031 13.7288C13.9281 13.7288 12.8931 12.7025 12.8931 11.4375C12.8942 11.1354 12.9549 10.8364 13.0716 10.5577C13.1884 10.279 13.3588 10.026 13.5734 9.81327C13.7879 9.60049 14.0422 9.43206 14.3219 9.31761C14.6015 9.20316 14.9009 9.14493 15.2031 9.14625ZM22.2268 23.8312C22.1106 24.2412 21.6568 24.5737 21.2118 24.5362C20.7668 24.5737 20.3906 24.2412 20.2706 23.8312L18.5031 17.6537H17.6393L20.2018 28.3487H17.9543V35.945C17.9543 36.2459 17.8348 36.5344 17.6221 36.7471C17.4093 36.9599 17.1208 37.0794 16.82 37.0794C16.5191 37.0794 16.2306 36.9599 16.0178 36.7471C15.8051 36.5344 15.6856 36.2459 15.6856 35.945V28.3487H14.7293V35.945C14.7283 36.2465 14.6077 36.5352 14.394 36.7478C14.1802 36.9604 13.8908 37.0794 13.5893 37.0788C13.4406 37.0788 13.2933 37.0494 13.1558 36.9924C13.0184 36.9354 12.8936 36.8518 12.7885 36.7465C12.6835 36.6412 12.6002 36.5162 12.5435 36.3787C12.4868 36.2411 12.4578 36.0938 12.4581 35.945V28.3487H10.1731L12.7593 17.6537H11.8956L10.1293 23.8312C9.99184 24.3037 9.42559 24.6638 8.90809 24.5163C8.39184 24.3675 8.10184 23.8137 8.27559 23.2237L10.0943 16.8863C10.8218 14.3538 12.9406 14.4338 12.9406 14.4338H17.4606C17.4606 14.4338 19.5806 14.3538 20.3081 16.8863L21.2518 20.175L22.1956 16.8863C22.9218 14.3538 25.0431 14.4338 25.0431 14.4338H30.8843C30.8843 14.4338 33.0043 14.3538 33.7318 16.8863L35.5331 23.1663L36.9343 23.3025L41.2843 23.2975C42.4106 23.2975 43.4068 24.215 43.4068 25.345V29.3813C43.4068 29.7675 43.1043 30.0812 42.7168 30.0812C42.6251 30.0811 42.5344 30.0628 42.4497 30.0276C42.3651 29.9923 42.2882 29.9406 42.2235 29.8756C42.1589 29.8106 42.1077 29.7335 42.0728 29.6487C42.038 29.5638 42.0203 29.473 42.0206 29.3813V25.8312H41.2956V36.3013C41.2805 36.5401 41.1749 36.7643 41.0004 36.9281C40.8259 37.0919 40.5956 37.1831 40.3562 37.1831C40.1169 37.1831 39.8865 37.0919 39.712 36.9281C39.5375 36.7643 39.4319 36.5401 39.4168 36.3013V30.7H38.6831V36.3013C38.6828 36.5492 38.5842 36.787 38.4089 36.9625C38.2337 37.1379 37.9961 37.2368 37.7481 37.2375C37.499 37.2378 37.2599 37.1395 37.083 36.9641C36.9062 36.7887 36.806 36.5503 36.8043 36.3013L36.8031 25.095L34.5106 24.4537C34.1131 24.3337 33.7406 23.9837 33.6381 23.6262L31.9956 17.6537H31.1318V35.7262C31.1212 36.0737 30.9757 36.4034 30.7261 36.6455C30.4766 36.8875 30.1426 37.0229 29.795 37.0229C29.4473 37.0229 29.1133 36.8875 28.8638 36.6455C28.6142 36.4034 28.4687 36.0737 28.4581 35.7262V25.4438H27.4718V35.7262C27.4718 36.0813 27.3308 36.4218 27.0797 36.6729C26.8287 36.924 26.4881 37.065 26.1331 37.065C25.778 37.065 25.4375 36.924 25.1864 36.6729C24.9354 36.4218 24.7943 36.0813 24.7943 35.7262V17.6537H23.9981L22.2281 23.8312H22.2268ZM71.0656 68.3125C71.0656 70.0587 70.9081 71.4737 70.9081 71.4737H46.8018V49.5612H45.8193L41.3443 56.2375C40.6156 57.2312 39.1356 57.7125 37.9581 57.7125H27.4531C27.0382 57.7128 26.6272 57.6314 26.2438 57.4729C25.8604 57.3144 25.5119 57.0819 25.2183 56.7887C24.9248 56.4954 24.6919 56.1472 24.5329 55.764C24.3739 55.3807 24.292 54.9699 24.2918 54.555C24.2918 52.815 25.7068 51.44 27.4531 51.44H37.0081L43.6356 41.4163C45.2268 38.9925 48.1706 37.8363 50.8306 37.8363C50.8306 44.885 52.5868 47.8687 55.7631 47.8687V59.5887C55.3119 59.7827 54.9275 60.1047 54.6574 60.5148C54.3873 60.9249 54.2432 61.4052 54.2431 61.8962C54.2431 63.2812 55.3506 64.39 56.7356 64.39C58.1218 64.39 59.2318 63.25 59.2318 61.8612C59.2318 60.8275 58.6043 59.94 57.7106 59.5575V47.8337C60.8843 47.8325 62.6443 44.8538 62.6443 37.805C67.9231 37.805 71.0656 40.95 71.0656 45.7663V68.3125Z" fill="#052925"/>
</g>
<defs>
<clipPath id="clip0_957_4816">
<rect width="80" height="80" fill="white" transform="translate(0.333008 0.384766)"/>
</clipPath>
</defs>
</svg>
