<svg width="8" height="13" viewBox="0 0 8 13" fill="none" xmlns="http://www.w3.org/2000/svg">
<path d="M4.16667 5.38591H7.16667L6.83333 6.71924H4.16667V12.7192H2.83333V6.71924H0.166668V5.38591H2.83333V4.1379C2.83333 2.94924 2.95733 2.5179 3.18933 2.08324C3.41667 1.65378 3.76787 1.30258 4.19733 1.07524C4.632 0.843238 5.06333 0.719238 6.252 0.719238C6.6 0.719238 6.90533 0.752572 7.16667 0.819238V2.05257H6.252C5.36933 2.05257 5.10067 2.10457 4.826 2.25124C4.62885 2.35424 4.46805 2.51527 4.36533 2.71257C4.21867 2.98657 4.16667 3.25524 4.16667 4.1379V5.38591Z" fill="#052925"/>
</svg>
