<svg width="13" height="13" viewBox="0 0 13 13" fill="none" xmlns="http://www.w3.org/2000/svg">
<path d="M6.50068 4.75257C7.11202 4.12791 7.90802 3.71924 8.83401 3.71924C9.80648 3.71924 10.7391 4.10555 11.4267 4.79318C12.1144 5.48081 12.5007 6.41344 12.5007 7.38591V12.3859H11.1673V7.38591C11.1673 6.76707 10.9215 6.17357 10.4839 5.73599C10.0463 5.2984 9.45285 5.05257 8.83401 5.05257C8.21518 5.05257 7.62168 5.2984 7.1841 5.73599C6.74651 6.17357 6.50068 6.76707 6.50068 7.38591V12.3859H5.16735V4.05257H6.50068V4.75257ZM1.83401 2.71924C1.5688 2.71924 1.31444 2.61388 1.12691 2.42635C0.939372 2.23881 0.834015 1.98445 0.834015 1.71924C0.834015 1.45402 0.939372 1.19967 1.12691 1.01213C1.31444 0.824595 1.5688 0.719238 1.83401 0.719238C2.09923 0.719238 2.35359 0.824595 2.54112 1.01213C2.72866 1.19967 2.83401 1.45402 2.83401 1.71924C2.83401 1.98445 2.72866 2.23881 2.54112 2.42635C2.35359 2.61388 2.09923 2.71924 1.83401 2.71924ZM1.16735 4.05257H2.50068V12.3859H1.16735V4.05257Z" fill="#052925"/>
</svg>
