<svg width="15" height="15" viewBox="0 0 15 15" fill="none" xmlns="http://www.w3.org/2000/svg">
<path d="M4.7 0.719238H10.3C12.4333 0.719238 14.1667 2.45257 14.1667 4.58591V10.1859C14.1667 11.2114 13.7593 12.1949 13.0341 12.9201C12.309 13.6452 11.3255 14.0526 10.3 14.0526H4.7C2.56666 14.0526 0.833328 12.3192 0.833328 10.1859V4.58591C0.833328 3.5604 1.24071 2.5769 1.96585 1.85176C2.69099 1.12662 3.67449 0.719238 4.7 0.719238ZM4.56666 2.05257C3.93014 2.05257 3.31969 2.30543 2.86961 2.75552C2.41952 3.2056 2.16666 3.81605 2.16666 4.45257V10.3192C2.16666 11.6459 3.24 12.7192 4.56666 12.7192H10.4333C11.0698 12.7192 11.6803 12.4664 12.1304 12.0163C12.5805 11.5662 12.8333 10.9558 12.8333 10.3192V4.45257C12.8333 3.12591 11.76 2.05257 10.4333 2.05257H4.56666ZM11 3.05257C11.221 3.05257 11.433 3.14037 11.5893 3.29665C11.7455 3.45293 11.8333 3.66489 11.8333 3.88591C11.8333 4.10692 11.7455 4.31888 11.5893 4.47516C11.433 4.63144 11.221 4.71924 11 4.71924C10.779 4.71924 10.567 4.63144 10.4107 4.47516C10.2545 4.31888 10.1667 4.10692 10.1667 3.88591C10.1667 3.66489 10.2545 3.45293 10.4107 3.29665C10.567 3.14037 10.779 3.05257 11 3.05257ZM7.5 4.05257C8.38405 4.05257 9.2319 4.40376 9.85702 5.02888C10.4821 5.654 10.8333 6.50185 10.8333 7.38591C10.8333 8.26996 10.4821 9.11781 9.85702 9.74293C9.2319 10.368 8.38405 10.7192 7.5 10.7192C6.61594 10.7192 5.76809 10.368 5.14297 9.74293C4.51785 9.11781 4.16666 8.26996 4.16666 7.38591C4.16666 6.50185 4.51785 5.654 5.14297 5.02888C5.76809 4.40376 6.61594 4.05257 7.5 4.05257ZM7.5 5.38591C6.96956 5.38591 6.46085 5.59662 6.08578 5.97169C5.71071 6.34676 5.5 6.85547 5.5 7.38591C5.5 7.91634 5.71071 8.42505 6.08578 8.80012C6.46085 9.17519 6.96956 9.38591 7.5 9.38591C8.03043 9.38591 8.53914 9.17519 8.91421 8.80012C9.28928 8.42505 9.5 7.91634 9.5 7.38591C9.5 6.85547 9.28928 6.34676 8.91421 5.97169C8.53914 5.59662 8.03043 5.38591 7.5 5.38591Z" fill="#052925"/>
</svg>
