<svg width="14" height="15" viewBox="0 0 14 15" fill="none" xmlns="http://www.w3.org/2000/svg">
<path d="M4.19967 0.833984H9.79968C11.933 0.833984 13.6663 2.56732 13.6663 4.70065V10.3007C13.6663 11.3262 13.259 12.3097 12.5338 13.0348C11.8087 13.7599 10.8252 14.1673 9.79968 14.1673H4.19967C2.06634 14.1673 0.333008 12.434 0.333008 10.3007V4.70065C0.333008 3.67515 0.740388 2.69165 1.46553 1.9665C2.19067 1.24136 3.17417 0.833984 4.19967 0.833984ZM4.06634 2.16732C3.42982 2.16732 2.81937 2.42017 2.36929 2.87026C1.9192 3.32035 1.66634 3.9308 1.66634 4.56732V10.434C1.66634 11.7607 2.73967 12.834 4.06634 12.834H9.93301C10.5695 12.834 11.18 12.5811 11.6301 12.131C12.0802 11.681 12.333 11.0705 12.333 10.434V4.56732C12.333 3.24065 11.2597 2.16732 9.93301 2.16732H4.06634ZM10.4997 3.16732C10.7207 3.16732 10.9327 3.25512 11.0889 3.4114C11.2452 3.56768 11.333 3.77964 11.333 4.00065C11.333 4.22166 11.2452 4.43363 11.0889 4.58991C10.9327 4.74619 10.7207 4.83398 10.4997 4.83398C10.2787 4.83398 10.0667 4.74619 9.91042 4.58991C9.75414 4.43363 9.66634 4.22166 9.66634 4.00065C9.66634 3.77964 9.75414 3.56768 9.91042 3.4114C10.0667 3.25512 10.2787 3.16732 10.4997 3.16732ZM6.99967 4.16732C7.88373 4.16732 8.73158 4.51851 9.3567 5.14363C9.98182 5.76875 10.333 6.6166 10.333 7.50065C10.333 8.38471 9.98182 9.23255 9.3567 9.85767C8.73158 10.4828 7.88373 10.834 6.99967 10.834C6.11562 10.834 5.26777 10.4828 4.64265 9.85767C4.01753 9.23255 3.66634 8.38471 3.66634 7.50065C3.66634 6.6166 4.01753 5.76875 4.64265 5.14363C5.26777 4.51851 6.11562 4.16732 6.99967 4.16732ZM6.99967 5.50065C6.46924 5.50065 5.96053 5.71136 5.58546 6.08644C5.21039 6.46151 4.99967 6.97022 4.99967 7.50065C4.99967 8.03108 5.21039 8.53979 5.58546 8.91487C5.96053 9.28994 6.46924 9.50065 6.99967 9.50065C7.53011 9.50065 8.03882 9.28994 8.41389 8.91487C8.78896 8.53979 8.99967 8.03108 8.99967 7.50065C8.99967 6.97022 8.78896 6.46151 8.41389 6.08644C8.03882 5.71136 7.53011 5.50065 6.99967 5.50065Z" fill="#D19358"/>
</svg>
