<svg width="12" height="13" viewBox="0 0 12 13" fill="none" xmlns="http://www.w3.org/2000/svg">
<path d="M6.00065 4.86732C6.61198 4.24265 7.40798 3.83398 8.33398 3.83398C9.30645 3.83398 10.2391 4.22029 10.9267 4.90793C11.6143 5.59556 12.0007 6.52819 12.0007 7.50065V12.5007H10.6673V7.50065C10.6673 6.88181 10.4215 6.28832 9.9839 5.85074C9.54632 5.41315 8.95282 5.16732 8.33398 5.16732C7.71515 5.16732 7.12165 5.41315 6.68407 5.85074C6.24648 6.28832 6.00065 6.88181 6.00065 7.50065V12.5007H4.66732V4.16732H6.00065V4.86732ZM1.33398 2.83398C1.06877 2.83398 0.814414 2.72863 0.626878 2.54109C0.439341 2.35355 0.333984 2.0992 0.333984 1.83398C0.333984 1.56877 0.439341 1.31441 0.626878 1.12688C0.814414 0.939341 1.06877 0.833984 1.33398 0.833984C1.5992 0.833984 1.85355 0.939341 2.04109 1.12688C2.22863 1.31441 2.33398 1.56877 2.33398 1.83398C2.33398 2.0992 2.22863 2.35355 2.04109 2.54109C1.85355 2.72863 1.5992 2.83398 1.33398 2.83398ZM0.667318 4.16732H2.00065V12.5007H0.667318V4.16732Z" fill="#D19358"/>
</svg>
