<svg width="26" height="36" viewBox="0 0 26 36" fill="none" xmlns="http://www.w3.org/2000/svg">
<path d="M13 0.385742C6.2275 0.385742 0.75 5.86324 0.75 12.6357C0.75 15.6807 1.625 18.5332 3.2175 21.1057C4.88 23.8007 7.0675 26.1107 8.7475 28.8057C9.57 30.1182 10.165 31.3432 10.795 32.7607C11.25 33.7232 11.6175 35.3857 13 35.3857C14.3825 35.3857 14.75 33.7232 15.1875 32.7607C15.835 31.3432 16.4125 30.1182 17.235 28.8057C18.915 26.1282 21.1025 23.8182 22.765 21.1057C24.375 18.5332 25.25 15.6807 25.25 12.6357C25.25 5.86324 19.7725 0.385742 13 0.385742ZM13 17.4482C11.8397 17.4482 10.7269 16.9873 9.90641 16.1668C9.08594 15.3464 8.625 14.2336 8.625 13.0732C8.625 11.9129 9.08594 10.8001 9.90641 9.97965C10.7269 9.15918 11.8397 8.69824 13 8.69824C14.1603 8.69824 15.2731 9.15918 16.0936 9.97965C16.9141 10.8001 17.375 11.9129 17.375 13.0732C17.375 14.2336 16.9141 15.3464 16.0936 16.1668C15.2731 16.9873 14.1603 17.4482 13 17.4482Z" fill="#052925"/>
</svg>
