<svg width="42" height="43" viewBox="0 0 42 43" fill="none" xmlns="http://www.w3.org/2000/svg">
<path d="M39.69 29.2724C36.82 29.2724 34.0433 28.8057 31.4533 27.9657C31.0476 27.8282 30.6113 27.8078 30.1945 27.9068C29.7776 28.0059 29.3972 28.2204 29.0967 28.5257L25.4333 33.1224C18.83 29.9724 12.6467 24.0224 9.35667 17.1857L13.9067 13.3124C14.5367 12.6591 14.7233 11.7491 14.4667 10.9324C13.6033 8.34241 13.16 5.56574 13.16 2.69574C13.16 1.43574 12.11 0.385742 10.85 0.385742H2.77667C1.51667 0.385742 0 0.945742 0 2.69574C0 24.3724 18.0367 42.3857 39.69 42.3857C41.3467 42.3857 42 40.9157 42 39.6324V31.5824C42 30.3224 40.95 29.2724 39.69 29.2724Z" fill="#052925"/>
</svg>
