<svg width="15" height="10" viewBox="0 0 15 10" fill="none" xmlns="http://www.w3.org/2000/svg">
<path fill-rule="evenodd" clip-rule="evenodd" d="M0.499991 5.3856C0.499991 5.51821 0.55267 5.64538 0.646438 5.73915C0.740206 5.83292 0.867383 5.8856 0.999991 5.8856L12.793 5.8856L9.64599 9.0316C9.5995 9.07809 9.56263 9.13328 9.53747 9.19402C9.51231 9.25475 9.49936 9.31986 9.49936 9.3856C9.49936 9.45134 9.51231 9.51644 9.53747 9.57718C9.56263 9.63792 9.5995 9.69311 9.64599 9.7396C9.69248 9.78609 9.74767 9.82296 9.80841 9.84812C9.86915 9.87328 9.93425 9.88623 9.99999 9.88623C10.0657 9.88623 10.1308 9.87328 10.1916 9.84812C10.2523 9.82296 10.3075 9.78609 10.354 9.7396L14.354 5.7396C14.4006 5.69315 14.4375 5.63798 14.4627 5.57723C14.4879 5.51649 14.5009 5.45137 14.5009 5.3856C14.5009 5.31983 14.4879 5.25471 14.4627 5.19397C14.4375 5.13322 14.4006 5.07804 14.354 5.0316L10.354 1.0316C10.3075 0.985111 10.2523 0.948235 10.1916 0.923076C10.1308 0.897917 10.0657 0.884968 9.99999 0.884968C9.93425 0.884968 9.86915 0.897917 9.80841 0.923076C9.74767 0.948235 9.69248 0.985111 9.64599 1.0316C9.5995 1.07809 9.56263 1.13328 9.53747 1.19402C9.51231 1.25476 9.49936 1.31986 9.49936 1.3856C9.49936 1.45134 9.51231 1.51644 9.53747 1.57718C9.56263 1.63792 9.5995 1.69311 9.64599 1.7396L12.793 4.8856L0.999991 4.8856C0.867383 4.8856 0.740206 4.93828 0.646438 5.03205C0.55267 5.12581 0.499991 5.25299 0.499991 5.3856Z" fill="#D19358"/>
</svg>
