<svg width="8" height="13" viewBox="0 0 8 13" fill="none" xmlns="http://www.w3.org/2000/svg">
<path d="M4.66699 5.50065H7.66699L7.33366 6.83398H4.66699V12.834H3.33366V6.83398H0.666992V5.50065H3.33366V4.25265C3.33366 3.06398 3.45766 2.63265 3.68966 2.19798C3.917 1.76852 4.2682 1.41732 4.69766 1.18998C5.13233 0.957984 5.56366 0.833984 6.75233 0.833984C7.10033 0.833984 7.40566 0.867318 7.66699 0.933984V2.16732H6.75233C5.86966 2.16732 5.60099 2.21932 5.32633 2.36598C5.12917 2.46899 4.96838 2.63002 4.86566 2.82732C4.71899 3.10132 4.66699 3.36998 4.66699 4.25265V5.50065Z" fill="#D19358"/>
</svg>
