<svg width="63" height="71" viewBox="0 0 63 71" fill="none" xmlns="http://www.w3.org/2000/svg">
<path d="M35.025 0.884766H27.35C25.8435 0.884262 24.3649 1.29135 23.0709 2.06289C21.7769 2.83443 20.7158 3.94167 20 5.26727V31.1598H42.54V5.63977C41.8648 4.218 40.8004 3.01671 39.4704 2.17513C38.1403 1.33355 36.599 0.88614 35.025 0.884766ZM36.7 23.0598H34.275V25.4848C34.275 26.3003 33.951 27.0824 33.3744 27.6591C32.7977 28.2358 32.0155 28.5598 31.2 28.5598C30.3845 28.5598 29.6023 28.2358 29.0256 27.6591C28.449 27.0824 28.125 26.3003 28.125 25.4848V23.0598H25.7C24.05 23.0598 22.705 21.7648 22.63 20.1323C22.6589 19.3349 22.9942 18.5794 23.566 18.023C24.1378 17.4665 24.9022 17.152 25.7 17.1448H28.125V14.6698C28.125 12.9323 29.5 11.5298 31.2 11.5298C32.9 11.5298 34.275 12.9323 34.275 14.6698V17.1448H36.7C38.35 17.1448 39.695 18.4898 39.7725 20.1323C39.7346 20.9215 39.3943 21.6659 38.8222 22.211C38.2501 22.7561 37.4902 23.06 36.7 23.0598ZM56.975 31.1598H45.04V6.21227C51.9 8.12477 56.955 14.5373 56.975 22.1423V31.1548V31.1598ZM17.5 31.1598V6.15977C10.53 8.00477 5.4 14.4673 5.4 22.1423V31.1548H17.5V31.1598ZM5.225 33.5348H57.1C60 33.5348 62.325 35.8598 62.325 38.7598C62.325 41.6348 59.975 43.9848 57.1 43.9848H52.13V48.4598C52.13 53.1798 50.57 57.5348 47.935 61.0398C48.2575 62.1573 47.98 63.4123 47.1025 64.2948C45.0189 66.3988 42.5384 68.0682 39.8047 69.2063C37.071 70.3444 34.1386 70.9285 31.1775 70.9248C28.2188 70.9235 25.2894 70.3381 22.5574 69.2021C19.8255 68.0661 17.3447 66.4018 15.2575 64.3048C14.8376 63.8858 14.5379 63.3618 14.3897 62.7875C14.2415 62.2132 14.2502 61.6096 14.415 61.0398C11.6857 57.4143 10.2129 52.9977 10.22 48.4598V43.9848H5.225C2.35 43.9848 0 41.6348 0 38.7598C0 35.8848 2.35 33.5348 5.225 33.5348ZM48.52 48.4598V43.9848H13.83V48.4598C13.83 52.2798 15.065 55.8098 17.1575 58.6748C18.1475 58.5423 19.1825 58.8573 19.9425 59.6173C21.4144 61.0984 23.1644 62.2741 25.092 63.0768C27.0197 63.8795 29.0869 64.2934 31.175 64.2948C35.56 64.2948 39.5225 62.5198 42.4 59.6248C43.1575 58.8598 44.2 58.5423 45.1925 58.6748C47.3589 55.71 48.5236 52.1317 48.5175 48.4598H48.52Z" fill="#052925"/>
</svg>
